<?xml version="1.0" encoding="UTF-8" standalone="no"?>
<!DOCTYPE svg PUBLIC "-//W3C//DTD SVG 1.1//EN"
 "http://www.w3.org/Graphics/SVG/1.1/DTD/svg11.dtd">
<!-- Generated by graphviz version 2.50.0 (0)
 -->
<!-- Title: Tree Pages: 1 -->
<svg width="3202pt" height="491pt"
 viewBox="0.00 0.00 3201.50 491.00" xmlns="http://www.w3.org/2000/svg" xmlns:xlink="http://www.w3.org/1999/xlink">
<g id="graph0" class="graph" transform="scale(1 1) rotate(0) translate(4 487)">
<title>Tree</title>
<polygon fill="white" stroke="transparent" points="-4,4 -4,-487 3197.5,-487 3197.5,4 -4,4"/>
<!-- 0 -->
<g id="node1" class="node">
<title>0</title>
<polygon fill="#f6d1b7" stroke="black" points="1314,-483 1168,-483 1168,-430 1314,-430 1314,-483"/>
<text text-anchor="middle" x="1241" y="-467.8" font-family="Helvetica,sans-Serif" font-size="14.00">SexNum &lt;= 0.5</text>
<text text-anchor="middle" x="1241" y="-452.8" font-family="Helvetica,sans-Serif" font-size="14.00">samples = 100.0%</text>
<text text-anchor="middle" x="1241" y="-437.8" font-family="Helvetica,sans-Serif" font-size="14.00">value = [0.611, 0.389]</text>
</g>
<!-- 1 -->
<g id="node2" class="node">
<title>1</title>
<polygon fill="#81c1ee" stroke="black" points="1010.5,-394 863.5,-394 863.5,-341 1010.5,-341 1010.5,-394"/>
<text text-anchor="middle" x="937" y="-378.8" font-family="Helvetica,sans-Serif" font-size="14.00">SibSp &lt;= 0.3</text>
<text text-anchor="middle" x="937" y="-363.8" font-family="Helvetica,sans-Serif" font-size="14.00">samples = 36.3%</text>
<text text-anchor="middle" x="937" y="-348.8" font-family="Helvetica,sans-Serif" font-size="14.00">value = [0.267, 0.733]</text>
</g>
<!-- 0&#45;&gt;1 -->
<g id="edge1" class="edge">
<title>0&#45;&gt;1</title>
<path fill="none" stroke="black" d="M1167.8,-434.55C1123.35,-421.83 1066.47,-405.55 1020.3,-392.34"/>
<polygon fill="black" stroke="black" points="1021.2,-388.96 1010.62,-389.57 1019.27,-395.69 1021.2,-388.96"/>
<text text-anchor="middle" x="1022.75" y="-407.73" font-family="Helvetica,sans-Serif" font-size="14.00">True</text>
</g>
<!-- 22 -->
<g id="node23" class="node">
<title>22</title>
<polygon fill="#eb9f69" stroke="black" points="1888.5,-394 1741.5,-394 1741.5,-341 1888.5,-341 1888.5,-394"/>
<text text-anchor="middle" x="1815" y="-378.8" font-family="Helvetica,sans-Serif" font-size="14.00">Pclass &lt;= 0.25</text>
<text text-anchor="middle" x="1815" y="-363.8" font-family="Helvetica,sans-Serif" font-size="14.00">samples = 63.7%</text>
<text text-anchor="middle" x="1815" y="-348.8" font-family="Helvetica,sans-Serif" font-size="14.00">value = [0.805, 0.195]</text>
</g>
<!-- 0&#45;&gt;22 -->
<g id="edge22" class="edge">
<title>0&#45;&gt;22</title>
<path fill="none" stroke="black" d="M1314.28,-444.39C1421.07,-428.21 1618.93,-398.22 1731.31,-381.18"/>
<polygon fill="black" stroke="black" points="1731.89,-384.64 1741.25,-379.68 1730.84,-377.72 1731.89,-384.64"/>
<text text-anchor="middle" x="1726.42" y="-396.11" font-family="Helvetica,sans-Serif" font-size="14.00">False</text>
</g>
<!-- 2 -->
<g id="node3" class="node">
<title>2</title>
<polygon fill="#7abded" stroke="black" points="691.5,-305 544.5,-305 544.5,-252 691.5,-252 691.5,-305"/>
<text text-anchor="middle" x="618" y="-289.8" font-family="Helvetica,sans-Serif" font-size="14.00">Pclass &lt;= 0.75</text>
<text text-anchor="middle" x="618" y="-274.8" font-family="Helvetica,sans-Serif" font-size="14.00">samples = 33.6%</text>
<text text-anchor="middle" x="618" y="-259.8" font-family="Helvetica,sans-Serif" font-size="14.00">value = [0.246, 0.754]</text>
</g>
<!-- 1&#45;&gt;2 -->
<g id="edge2" class="edge">
<title>1&#45;&gt;2</title>
<path fill="none" stroke="black" d="M863.41,-346.43C815.11,-333.26 751.83,-316 701.63,-302.31"/>
<polygon fill="black" stroke="black" points="702.34,-298.87 691.77,-299.62 700.49,-305.63 702.34,-298.87"/>
</g>
<!-- 15 -->
<g id="node16" class="node">
<title>15</title>
<polygon fill="#fcefe6" stroke="black" points="1010.5,-305 863.5,-305 863.5,-252 1010.5,-252 1010.5,-305"/>
<text text-anchor="middle" x="937" y="-289.8" font-family="Helvetica,sans-Serif" font-size="14.00">Parch &lt;= 0.083</text>
<text text-anchor="middle" x="937" y="-274.8" font-family="Helvetica,sans-Serif" font-size="14.00">samples = 2.7%</text>
<text text-anchor="middle" x="937" y="-259.8" font-family="Helvetica,sans-Serif" font-size="14.00">value = [0.533, 0.467]</text>
</g>
<!-- 1&#45;&gt;15 -->
<g id="edge15" class="edge">
<title>1&#45;&gt;15</title>
<path fill="none" stroke="black" d="M937,-340.87C937,-332.89 937,-323.93 937,-315.38"/>
<polygon fill="black" stroke="black" points="940.5,-315.25 937,-305.25 933.5,-315.25 940.5,-315.25"/>
</g>
<!-- 3 -->
<g id="node4" class="node">
<title>3</title>
<polygon fill="#48a4e7" stroke="black" points="451.5,-216 304.5,-216 304.5,-163 451.5,-163 451.5,-216"/>
<text text-anchor="middle" x="378" y="-200.8" font-family="Helvetica,sans-Serif" font-size="14.00">Parch &lt;= 0.083</text>
<text text-anchor="middle" x="378" y="-185.8" font-family="Helvetica,sans-Serif" font-size="14.00">samples = 20.8%</text>
<text text-anchor="middle" x="378" y="-170.8" font-family="Helvetica,sans-Serif" font-size="14.00">value = [0.069, 0.931]</text>
</g>
<!-- 2&#45;&gt;3 -->
<g id="edge3" class="edge">
<title>2&#45;&gt;3</title>
<path fill="none" stroke="black" d="M547.61,-251.98C519.53,-241.8 487.04,-230.03 458.07,-219.52"/>
<polygon fill="black" stroke="black" points="458.98,-216.13 448.39,-216.01 456.59,-222.71 458.98,-216.13"/>
</g>
<!-- 8 -->
<g id="node9" class="node">
<title>8</title>
<polygon fill="#fdf5f0" stroke="black" points="684,-216 552,-216 552,-163 684,-163 684,-216"/>
<text text-anchor="middle" x="618" y="-200.8" font-family="Helvetica,sans-Serif" font-size="14.00">SibSp &lt;= 0.1</text>
<text text-anchor="middle" x="618" y="-185.8" font-family="Helvetica,sans-Serif" font-size="14.00">samples = 12.8%</text>
<text text-anchor="middle" x="618" y="-170.8" font-family="Helvetica,sans-Serif" font-size="14.00">value = [0.52, 0.48]</text>
</g>
<!-- 2&#45;&gt;8 -->
<g id="edge8" class="edge">
<title>2&#45;&gt;8</title>
<path fill="none" stroke="black" d="M618,-251.87C618,-243.89 618,-234.93 618,-226.38"/>
<polygon fill="black" stroke="black" points="621.5,-226.25 618,-216.25 614.5,-226.25 621.5,-226.25"/>
</g>
<!-- 4 -->
<g id="node5" class="node">
<title>4</title>
<polygon fill="#4ea7e8" stroke="black" points="297.5,-127 150.5,-127 150.5,-74 297.5,-74 297.5,-127"/>
<text text-anchor="middle" x="224" y="-111.8" font-family="Helvetica,sans-Serif" font-size="14.00">SibSp &lt;= 0.1</text>
<text text-anchor="middle" x="224" y="-96.8" font-family="Helvetica,sans-Serif" font-size="14.00">samples = 14.5%</text>
<text text-anchor="middle" x="224" y="-81.8" font-family="Helvetica,sans-Serif" font-size="14.00">value = [0.096, 0.904]</text>
</g>
<!-- 3&#45;&gt;4 -->
<g id="edge4" class="edge">
<title>3&#45;&gt;4</title>
<path fill="none" stroke="black" d="M332.63,-162.87C315.63,-153.26 296.14,-142.25 278.41,-132.24"/>
<polygon fill="black" stroke="black" points="279.74,-128.97 269.31,-127.1 276.3,-135.07 279.74,-128.97"/>
</g>
<!-- 7 -->
<g id="node8" class="node">
<title>7</title>
<polygon fill="#399de5" stroke="black" points="436.5,-119.5 319.5,-119.5 319.5,-81.5 436.5,-81.5 436.5,-119.5"/>
<text text-anchor="middle" x="378" y="-104.3" font-family="Helvetica,sans-Serif" font-size="14.00">samples = 6.3%</text>
<text text-anchor="middle" x="378" y="-89.3" font-family="Helvetica,sans-Serif" font-size="14.00">value = [0.0, 1.0]</text>
</g>
<!-- 3&#45;&gt;7 -->
<g id="edge7" class="edge">
<title>3&#45;&gt;7</title>
<path fill="none" stroke="black" d="M378,-162.87C378,-152.42 378,-140.3 378,-129.61"/>
<polygon fill="black" stroke="black" points="381.5,-129.51 378,-119.51 374.5,-129.51 381.5,-129.51"/>
</g>
<!-- 5 -->
<g id="node6" class="node">
<title>5</title>
<polygon fill="#54aae9" stroke="black" points="132,-38 0,-38 0,0 132,0 132,-38"/>
<text text-anchor="middle" x="66" y="-22.8" font-family="Helvetica,sans-Serif" font-size="14.00">samples = 9.0%</text>
<text text-anchor="middle" x="66" y="-7.8" font-family="Helvetica,sans-Serif" font-size="14.00">value = [0.12, 0.88]</text>
</g>
<!-- 4&#45;&gt;5 -->
<g id="edge5" class="edge">
<title>4&#45;&gt;5</title>
<path fill="none" stroke="black" d="M173.14,-73.91C153.29,-63.92 130.72,-52.56 111.43,-42.86"/>
<polygon fill="black" stroke="black" points="112.75,-39.61 102.25,-38.24 109.61,-45.86 112.75,-39.61"/>
</g>
<!-- 6 -->
<g id="node7" class="node">
<title>6</title>
<polygon fill="#46a3e7" stroke="black" points="297.5,-38 150.5,-38 150.5,0 297.5,0 297.5,-38"/>
<text text-anchor="middle" x="224" y="-22.8" font-family="Helvetica,sans-Serif" font-size="14.00">samples = 5.5%</text>
<text text-anchor="middle" x="224" y="-7.8" font-family="Helvetica,sans-Serif" font-size="14.00">value = [0.061, 0.939]</text>
</g>
<!-- 4&#45;&gt;6 -->
<g id="edge6" class="edge">
<title>4&#45;&gt;6</title>
<path fill="none" stroke="black" d="M224,-73.91C224,-65.74 224,-56.65 224,-48.3"/>
<polygon fill="black" stroke="black" points="227.5,-48.24 224,-38.24 220.5,-48.24 227.5,-48.24"/>
</g>
<!-- 9 -->
<g id="node10" class="node">
<title>9</title>
<polygon fill="#f9e1cf" stroke="black" points="608.5,-127 461.5,-127 461.5,-74 608.5,-74 608.5,-127"/>
<text text-anchor="middle" x="535" y="-111.8" font-family="Helvetica,sans-Serif" font-size="14.00">Parch &lt;= 0.583</text>
<text text-anchor="middle" x="535" y="-96.8" font-family="Helvetica,sans-Serif" font-size="14.00">samples = 7.9%</text>
<text text-anchor="middle" x="535" y="-81.8" font-family="Helvetica,sans-Serif" font-size="14.00">value = [0.568, 0.432]</text>
</g>
<!-- 8&#45;&gt;9 -->
<g id="edge9" class="edge">
<title>8&#45;&gt;9</title>
<path fill="none" stroke="black" d="M593.55,-162.87C585.09,-154.01 575.5,-143.95 566.56,-134.58"/>
<polygon fill="black" stroke="black" points="569,-132.07 559.57,-127.25 563.94,-136.9 569,-132.07"/>
</g>
<!-- 12 -->
<g id="node13" class="node">
<title>12</title>
<polygon fill="#dceefa" stroke="black" points="773.5,-127 626.5,-127 626.5,-74 773.5,-74 773.5,-127"/>
<text text-anchor="middle" x="700" y="-111.8" font-family="Helvetica,sans-Serif" font-size="14.00">Age &lt;= 0.306</text>
<text text-anchor="middle" x="700" y="-96.8" font-family="Helvetica,sans-Serif" font-size="14.00">samples = 4.9%</text>
<text text-anchor="middle" x="700" y="-81.8" font-family="Helvetica,sans-Serif" font-size="14.00">value = [0.452, 0.548]</text>
</g>
<!-- 8&#45;&gt;12 -->
<g id="edge12" class="edge">
<title>8&#45;&gt;12</title>
<path fill="none" stroke="black" d="M642.16,-162.87C650.51,-154.01 659.99,-143.95 668.82,-134.58"/>
<polygon fill="black" stroke="black" points="671.42,-136.93 675.73,-127.25 666.32,-132.13 671.42,-136.93"/>
</g>
<!-- 10 -->
<g id="node11" class="node">
<title>10</title>
<polygon fill="#fbeee4" stroke="black" points="462.5,-38 315.5,-38 315.5,0 462.5,0 462.5,-38"/>
<text text-anchor="middle" x="389" y="-22.8" font-family="Helvetica,sans-Serif" font-size="14.00">samples = 7.4%</text>
<text text-anchor="middle" x="389" y="-7.8" font-family="Helvetica,sans-Serif" font-size="14.00">value = [0.537, 0.463]</text>
</g>
<!-- 9&#45;&gt;10 -->
<g id="edge10" class="edge">
<title>9&#45;&gt;10</title>
<path fill="none" stroke="black" d="M488,-73.91C469.83,-64.01 449.18,-52.77 431.47,-43.12"/>
<polygon fill="black" stroke="black" points="432.95,-39.95 422.5,-38.24 429.6,-46.09 432.95,-39.95"/>
</g>
<!-- 11 -->
<g id="node12" class="node">
<title>11</title>
<polygon fill="#e58139" stroke="black" points="597.5,-38 480.5,-38 480.5,0 597.5,0 597.5,-38"/>
<text text-anchor="middle" x="539" y="-22.8" font-family="Helvetica,sans-Serif" font-size="14.00">samples = 0.5%</text>
<text text-anchor="middle" x="539" y="-7.8" font-family="Helvetica,sans-Serif" font-size="14.00">value = [1.0, 0.0]</text>
</g>
<!-- 9&#45;&gt;11 -->
<g id="edge11" class="edge">
<title>9&#45;&gt;11</title>
<path fill="none" stroke="black" d="M536.29,-73.91C536.7,-65.74 537.16,-56.65 537.58,-48.3"/>
<polygon fill="black" stroke="black" points="541.08,-48.4 538.08,-38.24 534.08,-48.05 541.08,-48.4"/>
</g>
<!-- 13 -->
<g id="node14" class="node">
<title>13</title>
<polygon fill="#67b4eb" stroke="black" points="762.5,-38 615.5,-38 615.5,0 762.5,0 762.5,-38"/>
<text text-anchor="middle" x="689" y="-22.8" font-family="Helvetica,sans-Serif" font-size="14.00">samples = 2.2%</text>
<text text-anchor="middle" x="689" y="-7.8" font-family="Helvetica,sans-Serif" font-size="14.00">value = [0.188, 0.812]</text>
</g>
<!-- 12&#45;&gt;13 -->
<g id="edge13" class="edge">
<title>12&#45;&gt;13</title>
<path fill="none" stroke="black" d="M696.46,-73.91C695.33,-65.74 694.07,-56.65 692.92,-48.3"/>
<polygon fill="black" stroke="black" points="696.36,-47.66 691.52,-38.24 689.43,-48.62 696.36,-47.66"/>
</g>
<!-- 14 -->
<g id="node15" class="node">
<title>14</title>
<polygon fill="#eeaf81" stroke="black" points="927.5,-38 780.5,-38 780.5,0 927.5,0 927.5,-38"/>
<text text-anchor="middle" x="854" y="-22.8" font-family="Helvetica,sans-Serif" font-size="14.00">samples = 2.7%</text>
<text text-anchor="middle" x="854" y="-7.8" font-family="Helvetica,sans-Serif" font-size="14.00">value = [0.733, 0.267]</text>
</g>
<!-- 12&#45;&gt;14 -->
<g id="edge14" class="edge">
<title>12&#45;&gt;14</title>
<path fill="none" stroke="black" d="M749.57,-73.91C768.92,-63.92 790.92,-52.56 809.72,-42.86"/>
<polygon fill="black" stroke="black" points="811.39,-45.94 818.67,-38.24 808.18,-39.72 811.39,-45.94"/>
</g>
<!-- 16 -->
<g id="node17" class="node">
<title>16</title>
<polygon fill="#e58139" stroke="black" points="920.5,-208.5 803.5,-208.5 803.5,-170.5 920.5,-170.5 920.5,-208.5"/>
<text text-anchor="middle" x="862" y="-193.3" font-family="Helvetica,sans-Serif" font-size="14.00">samples = 0.3%</text>
<text text-anchor="middle" x="862" y="-178.3" font-family="Helvetica,sans-Serif" font-size="14.00">value = [1.0, 0.0]</text>
</g>
<!-- 15&#45;&gt;16 -->
<g id="edge16" class="edge">
<title>15&#45;&gt;16</title>
<path fill="none" stroke="black" d="M914.9,-251.87C905.24,-240.66 893.92,-227.53 884.24,-216.29"/>
<polygon fill="black" stroke="black" points="886.7,-213.8 877.52,-208.51 881.4,-218.37 886.7,-213.8"/>
</g>
<!-- 17 -->
<g id="node18" class="node">
<title>17</title>
<polygon fill="#e3f1fb" stroke="black" points="1085.5,-216 938.5,-216 938.5,-163 1085.5,-163 1085.5,-216"/>
<text text-anchor="middle" x="1012" y="-200.8" font-family="Helvetica,sans-Serif" font-size="14.00">Age &lt;= 0.081</text>
<text text-anchor="middle" x="1012" y="-185.8" font-family="Helvetica,sans-Serif" font-size="14.00">samples = 2.5%</text>
<text text-anchor="middle" x="1012" y="-170.8" font-family="Helvetica,sans-Serif" font-size="14.00">value = [0.462, 0.538]</text>
</g>
<!-- 15&#45;&gt;17 -->
<g id="edge17" class="edge">
<title>15&#45;&gt;17</title>
<path fill="none" stroke="black" d="M959.1,-251.87C966.66,-243.1 975.23,-233.15 983.24,-223.86"/>
<polygon fill="black" stroke="black" points="985.92,-226.11 989.8,-216.25 980.62,-221.54 985.92,-226.11"/>
</g>
<!-- 18 -->
<g id="node19" class="node">
<title>18</title>
<polygon fill="#399de5" stroke="black" points="995.5,-119.5 878.5,-119.5 878.5,-81.5 995.5,-81.5 995.5,-119.5"/>
<text text-anchor="middle" x="937" y="-104.3" font-family="Helvetica,sans-Serif" font-size="14.00">samples = 0.8%</text>
<text text-anchor="middle" x="937" y="-89.3" font-family="Helvetica,sans-Serif" font-size="14.00">value = [0.0, 1.0]</text>
</g>
<!-- 17&#45;&gt;18 -->
<g id="edge18" class="edge">
<title>17&#45;&gt;18</title>
<path fill="none" stroke="black" d="M989.9,-162.87C980.24,-151.66 968.92,-138.53 959.24,-127.29"/>
<polygon fill="black" stroke="black" points="961.7,-124.8 952.52,-119.51 956.4,-129.37 961.7,-124.8"/>
</g>
<!-- 19 -->
<g id="node20" class="node">
<title>19</title>
<polygon fill="#f2c09c" stroke="black" points="1160.5,-127 1013.5,-127 1013.5,-74 1160.5,-74 1160.5,-127"/>
<text text-anchor="middle" x="1087" y="-111.8" font-family="Helvetica,sans-Serif" font-size="14.00">Parch &lt;= 0.417</text>
<text text-anchor="middle" x="1087" y="-96.8" font-family="Helvetica,sans-Serif" font-size="14.00">samples = 1.6%</text>
<text text-anchor="middle" x="1087" y="-81.8" font-family="Helvetica,sans-Serif" font-size="14.00">value = [0.667, 0.333]</text>
</g>
<!-- 17&#45;&gt;19 -->
<g id="edge19" class="edge">
<title>17&#45;&gt;19</title>
<path fill="none" stroke="black" d="M1034.1,-162.87C1041.66,-154.1 1050.23,-144.15 1058.24,-134.86"/>
<polygon fill="black" stroke="black" points="1060.92,-137.11 1064.8,-127.25 1055.62,-132.54 1060.92,-137.11"/>
</g>
<!-- 20 -->
<g id="node21" class="node">
<title>20</title>
<polygon fill="#eeab7b" stroke="black" points="1078,-38 946,-38 946,0 1078,0 1078,-38"/>
<text text-anchor="middle" x="1012" y="-22.8" font-family="Helvetica,sans-Serif" font-size="14.00">samples = 1.4%</text>
<text text-anchor="middle" x="1012" y="-7.8" font-family="Helvetica,sans-Serif" font-size="14.00">value = [0.75, 0.25]</text>
</g>
<!-- 19&#45;&gt;20 -->
<g id="edge20" class="edge">
<title>19&#45;&gt;20</title>
<path fill="none" stroke="black" d="M1062.86,-73.91C1054.29,-64.83 1044.66,-54.62 1036.1,-45.54"/>
<polygon fill="black" stroke="black" points="1038.61,-43.11 1029.21,-38.24 1033.52,-47.91 1038.61,-43.11"/>
</g>
<!-- 21 -->
<g id="node22" class="node">
<title>21</title>
<polygon fill="#399de5" stroke="black" points="1213.5,-38 1096.5,-38 1096.5,0 1213.5,0 1213.5,-38"/>
<text text-anchor="middle" x="1155" y="-22.8" font-family="Helvetica,sans-Serif" font-size="14.00">samples = 0.3%</text>
<text text-anchor="middle" x="1155" y="-7.8" font-family="Helvetica,sans-Serif" font-size="14.00">value = [0.0, 1.0]</text>
</g>
<!-- 19&#45;&gt;21 -->
<g id="edge21" class="edge">
<title>19&#45;&gt;21</title>
<path fill="none" stroke="black" d="M1108.89,-73.91C1116.5,-65.01 1125.04,-55.03 1132.68,-46.09"/>
<polygon fill="black" stroke="black" points="1135.56,-48.11 1139.4,-38.24 1130.24,-43.56 1135.56,-48.11"/>
</g>
<!-- 23 -->
<g id="node24" class="node">
<title>23</title>
<polygon fill="#f8dbc7" stroke="black" points="1888.5,-305 1741.5,-305 1741.5,-252 1888.5,-252 1888.5,-305"/>
<text text-anchor="middle" x="1815" y="-289.8" font-family="Helvetica,sans-Serif" font-size="14.00">SibSp &lt;= 0.1</text>
<text text-anchor="middle" x="1815" y="-274.8" font-family="Helvetica,sans-Serif" font-size="14.00">samples = 15.6%</text>
<text text-anchor="middle" x="1815" y="-259.8" font-family="Helvetica,sans-Serif" font-size="14.00">value = [0.582, 0.418]</text>
</g>
<!-- 22&#45;&gt;23 -->
<g id="edge23" class="edge">
<title>22&#45;&gt;23</title>
<path fill="none" stroke="black" d="M1815,-340.87C1815,-332.89 1815,-323.93 1815,-315.38"/>
<polygon fill="black" stroke="black" points="1818.5,-315.25 1815,-305.25 1811.5,-315.25 1818.5,-315.25"/>
</g>
<!-- 38 -->
<g id="node39" class="node">
<title>38</title>
<polygon fill="#e99254" stroke="black" points="2698,-305 2566,-305 2566,-252 2698,-252 2698,-305"/>
<text text-anchor="middle" x="2632" y="-289.8" font-family="Helvetica,sans-Serif" font-size="14.00">Age &lt;= 0.081</text>
<text text-anchor="middle" x="2632" y="-274.8" font-family="Helvetica,sans-Serif" font-size="14.00">samples = 48.1%</text>
<text text-anchor="middle" x="2632" y="-259.8" font-family="Helvetica,sans-Serif" font-size="14.00">value = [0.88, 0.12]</text>
</g>
<!-- 22&#45;&gt;38 -->
<g id="edge38" class="edge">
<title>22&#45;&gt;38</title>
<path fill="none" stroke="black" d="M1888.58,-358.66C2042.97,-342.22 2399.34,-304.28 2555.9,-287.6"/>
<polygon fill="black" stroke="black" points="2556.34,-291.08 2565.92,-286.54 2555.6,-284.12 2556.34,-291.08"/>
</g>
<!-- 24 -->
<g id="node25" class="node">
<title>24</title>
<polygon fill="#f2c29f" stroke="black" points="1757.5,-216 1610.5,-216 1610.5,-163 1757.5,-163 1757.5,-216"/>
<text text-anchor="middle" x="1684" y="-200.8" font-family="Helvetica,sans-Serif" font-size="14.00">Parch &lt;= 0.083</text>
<text text-anchor="middle" x="1684" y="-185.8" font-family="Helvetica,sans-Serif" font-size="14.00">samples = 10.4%</text>
<text text-anchor="middle" x="1684" y="-170.8" font-family="Helvetica,sans-Serif" font-size="14.00">value = [0.661, 0.339]</text>
</g>
<!-- 23&#45;&gt;24 -->
<g id="edge24" class="edge">
<title>23&#45;&gt;24</title>
<path fill="none" stroke="black" d="M1776.4,-251.87C1762.27,-242.48 1746.12,-231.75 1731.31,-221.92"/>
<polygon fill="black" stroke="black" points="1733.04,-218.87 1722.77,-216.25 1729.17,-224.7 1733.04,-218.87"/>
</g>
<!-- 31 -->
<g id="node32" class="node">
<title>31</title>
<polygon fill="#d3e9f9" stroke="black" points="2019.5,-216 1872.5,-216 1872.5,-163 2019.5,-163 2019.5,-216"/>
<text text-anchor="middle" x="1946" y="-200.8" font-family="Helvetica,sans-Serif" font-size="14.00">Age &lt;= 0.637</text>
<text text-anchor="middle" x="1946" y="-185.8" font-family="Helvetica,sans-Serif" font-size="14.00">samples = 5.2%</text>
<text text-anchor="middle" x="1946" y="-170.8" font-family="Helvetica,sans-Serif" font-size="14.00">value = [0.438, 0.562]</text>
</g>
<!-- 23&#45;&gt;31 -->
<g id="edge31" class="edge">
<title>23&#45;&gt;31</title>
<path fill="none" stroke="black" d="M1853.6,-251.87C1867.73,-242.48 1883.88,-231.75 1898.69,-221.92"/>
<polygon fill="black" stroke="black" points="1900.83,-224.7 1907.23,-216.25 1896.96,-218.87 1900.83,-224.7"/>
</g>
<!-- 25 -->
<g id="node26" class="node">
<title>25</title>
<polygon fill="#f4ccae" stroke="black" points="1528.5,-127 1381.5,-127 1381.5,-74 1528.5,-74 1528.5,-127"/>
<text text-anchor="middle" x="1455" y="-111.8" font-family="Helvetica,sans-Serif" font-size="14.00">Age &lt;= 0.669</text>
<text text-anchor="middle" x="1455" y="-96.8" font-family="Helvetica,sans-Serif" font-size="14.00">samples = 7.4%</text>
<text text-anchor="middle" x="1455" y="-81.8" font-family="Helvetica,sans-Serif" font-size="14.00">value = [0.628, 0.372]</text>
</g>
<!-- 24&#45;&gt;25 -->
<g id="edge25" class="edge">
<title>24&#45;&gt;25</title>
<path fill="none" stroke="black" d="M1616.84,-162.98C1590.16,-152.85 1559.32,-141.13 1531.76,-130.66"/>
<polygon fill="black" stroke="black" points="1532.75,-127.29 1522.16,-127.01 1530.26,-133.84 1532.75,-127.29"/>
</g>
<!-- 28 -->
<g id="node29" class="node">
<title>28</title>
<polygon fill="#eeab7b" stroke="black" points="1750,-127 1618,-127 1618,-74 1750,-74 1750,-127"/>
<text text-anchor="middle" x="1684" y="-111.8" font-family="Helvetica,sans-Serif" font-size="14.00">Age &lt;= 0.462</text>
<text text-anchor="middle" x="1684" y="-96.8" font-family="Helvetica,sans-Serif" font-size="14.00">samples = 3.0%</text>
<text text-anchor="middle" x="1684" y="-81.8" font-family="Helvetica,sans-Serif" font-size="14.00">value = [0.75, 0.25]</text>
</g>
<!-- 24&#45;&gt;28 -->
<g id="edge28" class="edge">
<title>24&#45;&gt;28</title>
<path fill="none" stroke="black" d="M1684,-162.87C1684,-154.89 1684,-145.93 1684,-137.38"/>
<polygon fill="black" stroke="black" points="1687.5,-137.25 1684,-127.25 1680.5,-137.25 1687.5,-137.25"/>
</g>
<!-- 26 -->
<g id="node27" class="node">
<title>26</title>
<polygon fill="#fbebe0" stroke="black" points="1378.5,-38 1231.5,-38 1231.5,0 1378.5,0 1378.5,-38"/>
<text text-anchor="middle" x="1305" y="-22.8" font-family="Helvetica,sans-Serif" font-size="14.00">samples = 5.7%</text>
<text text-anchor="middle" x="1305" y="-7.8" font-family="Helvetica,sans-Serif" font-size="14.00">value = [0.543, 0.457]</text>
</g>
<!-- 25&#45;&gt;26 -->
<g id="edge26" class="edge">
<title>25&#45;&gt;26</title>
<path fill="none" stroke="black" d="M1406.71,-73.91C1387.96,-63.97 1366.64,-52.67 1348.38,-42.99"/>
<polygon fill="black" stroke="black" points="1349.89,-39.83 1339.41,-38.24 1346.61,-46.01 1349.89,-39.83"/>
</g>
<!-- 27 -->
<g id="node28" class="node">
<title>27</title>
<polygon fill="#e58139" stroke="black" points="1513.5,-38 1396.5,-38 1396.5,0 1513.5,0 1513.5,-38"/>
<text text-anchor="middle" x="1455" y="-22.8" font-family="Helvetica,sans-Serif" font-size="14.00">samples = 1.6%</text>
<text text-anchor="middle" x="1455" y="-7.8" font-family="Helvetica,sans-Serif" font-size="14.00">value = [1.0, 0.0]</text>
</g>
<!-- 25&#45;&gt;27 -->
<g id="edge27" class="edge">
<title>25&#45;&gt;27</title>
<path fill="none" stroke="black" d="M1455,-73.91C1455,-65.74 1455,-56.65 1455,-48.3"/>
<polygon fill="black" stroke="black" points="1458.5,-48.24 1455,-38.24 1451.5,-48.24 1458.5,-48.24"/>
</g>
<!-- 29 -->
<g id="node30" class="node">
<title>29</title>
<polygon fill="#cee6f8" stroke="black" points="1678.5,-38 1531.5,-38 1531.5,0 1678.5,0 1678.5,-38"/>
<text text-anchor="middle" x="1605" y="-22.8" font-family="Helvetica,sans-Serif" font-size="14.00">samples = 1.6%</text>
<text text-anchor="middle" x="1605" y="-7.8" font-family="Helvetica,sans-Serif" font-size="14.00">value = [0.429, 0.571]</text>
</g>
<!-- 28&#45;&gt;29 -->
<g id="edge29" class="edge">
<title>28&#45;&gt;29</title>
<path fill="none" stroke="black" d="M1658.57,-73.91C1649.55,-64.83 1639.4,-54.62 1630.38,-45.54"/>
<polygon fill="black" stroke="black" points="1632.66,-42.87 1623.12,-38.24 1627.69,-47.8 1632.66,-42.87"/>
</g>
<!-- 30 -->
<g id="node31" class="node">
<title>30</title>
<polygon fill="#e58139" stroke="black" points="1813.5,-38 1696.5,-38 1696.5,0 1813.5,0 1813.5,-38"/>
<text text-anchor="middle" x="1755" y="-22.8" font-family="Helvetica,sans-Serif" font-size="14.00">samples = 1.4%</text>
<text text-anchor="middle" x="1755" y="-7.8" font-family="Helvetica,sans-Serif" font-size="14.00">value = [1.0, 0.0]</text>
</g>
<!-- 28&#45;&gt;30 -->
<g id="edge30" class="edge">
<title>28&#45;&gt;30</title>
<path fill="none" stroke="black" d="M1706.86,-73.91C1714.88,-64.92 1723.9,-54.82 1731.94,-45.82"/>
<polygon fill="black" stroke="black" points="1734.66,-48.03 1738.71,-38.24 1729.44,-43.37 1734.66,-48.03"/>
</g>
<!-- 32 -->
<g id="node33" class="node">
<title>32</title>
<polygon fill="#b9dcf6" stroke="black" points="2019.5,-127 1872.5,-127 1872.5,-74 2019.5,-74 2019.5,-127"/>
<text text-anchor="middle" x="1946" y="-111.8" font-family="Helvetica,sans-Serif" font-size="14.00">Parch &lt;= 0.083</text>
<text text-anchor="middle" x="1946" y="-96.8" font-family="Helvetica,sans-Serif" font-size="14.00">samples = 4.6%</text>
<text text-anchor="middle" x="1946" y="-81.8" font-family="Helvetica,sans-Serif" font-size="14.00">value = [0.393, 0.607]</text>
</g>
<!-- 31&#45;&gt;32 -->
<g id="edge32" class="edge">
<title>31&#45;&gt;32</title>
<path fill="none" stroke="black" d="M1946,-162.87C1946,-154.89 1946,-145.93 1946,-137.38"/>
<polygon fill="black" stroke="black" points="1949.5,-137.25 1946,-127.25 1942.5,-137.25 1949.5,-137.25"/>
</g>
<!-- 35 -->
<g id="node36" class="node">
<title>35</title>
<polygon fill="#eeab7b" stroke="black" points="2226,-127 2094,-127 2094,-74 2226,-74 2226,-127"/>
<text text-anchor="middle" x="2160" y="-111.8" font-family="Helvetica,sans-Serif" font-size="14.00">Age &lt;= 0.7</text>
<text text-anchor="middle" x="2160" y="-96.8" font-family="Helvetica,sans-Serif" font-size="14.00">samples = 0.5%</text>
<text text-anchor="middle" x="2160" y="-81.8" font-family="Helvetica,sans-Serif" font-size="14.00">value = [0.75, 0.25]</text>
</g>
<!-- 31&#45;&gt;35 -->
<g id="edge35" class="edge">
<title>31&#45;&gt;35</title>
<path fill="none" stroke="black" d="M2008.76,-162.98C2033.59,-152.89 2062.27,-141.23 2087.93,-130.8"/>
<polygon fill="black" stroke="black" points="2089.29,-134.02 2097.24,-127.01 2086.66,-127.54 2089.29,-134.02"/>
</g>
<!-- 33 -->
<g id="node34" class="node">
<title>33</title>
<polygon fill="#ffffff" stroke="black" points="1948.5,-38 1831.5,-38 1831.5,0 1948.5,0 1948.5,-38"/>
<text text-anchor="middle" x="1890" y="-22.8" font-family="Helvetica,sans-Serif" font-size="14.00">samples = 3.8%</text>
<text text-anchor="middle" x="1890" y="-7.8" font-family="Helvetica,sans-Serif" font-size="14.00">value = [0.5, 0.5]</text>
</g>
<!-- 32&#45;&gt;33 -->
<g id="edge33" class="edge">
<title>32&#45;&gt;33</title>
<path fill="none" stroke="black" d="M1927.97,-73.91C1921.83,-65.19 1914.96,-55.43 1908.76,-46.64"/>
<polygon fill="black" stroke="black" points="1911.47,-44.4 1902.85,-38.24 1905.74,-48.43 1911.47,-44.4"/>
</g>
<!-- 34 -->
<g id="node35" class="node">
<title>34</title>
<polygon fill="#399de5" stroke="black" points="2083.5,-38 1966.5,-38 1966.5,0 2083.5,0 2083.5,-38"/>
<text text-anchor="middle" x="2025" y="-22.8" font-family="Helvetica,sans-Serif" font-size="14.00">samples = 0.8%</text>
<text text-anchor="middle" x="2025" y="-7.8" font-family="Helvetica,sans-Serif" font-size="14.00">value = [0.0, 1.0]</text>
</g>
<!-- 32&#45;&gt;34 -->
<g id="edge34" class="edge">
<title>32&#45;&gt;34</title>
<path fill="none" stroke="black" d="M1971.43,-73.91C1980.45,-64.83 1990.6,-54.62 1999.62,-45.54"/>
<polygon fill="black" stroke="black" points="2002.31,-47.8 2006.88,-38.24 1997.34,-42.87 2002.31,-47.8"/>
</g>
<!-- 36 -->
<g id="node37" class="node">
<title>36</title>
<polygon fill="#e58139" stroke="black" points="2218.5,-38 2101.5,-38 2101.5,0 2218.5,0 2218.5,-38"/>
<text text-anchor="middle" x="2160" y="-22.8" font-family="Helvetica,sans-Serif" font-size="14.00">samples = 0.3%</text>
<text text-anchor="middle" x="2160" y="-7.8" font-family="Helvetica,sans-Serif" font-size="14.00">value = [1.0, 0.0]</text>
</g>
<!-- 35&#45;&gt;36 -->
<g id="edge36" class="edge">
<title>35&#45;&gt;36</title>
<path fill="none" stroke="black" d="M2160,-73.91C2160,-65.74 2160,-56.65 2160,-48.3"/>
<polygon fill="black" stroke="black" points="2163.5,-48.24 2160,-38.24 2156.5,-48.24 2163.5,-48.24"/>
</g>
<!-- 37 -->
<g id="node38" class="node">
<title>37</title>
<polygon fill="#399de5" stroke="black" points="2353.5,-38 2236.5,-38 2236.5,0 2353.5,0 2353.5,-38"/>
<text text-anchor="middle" x="2295" y="-22.8" font-family="Helvetica,sans-Serif" font-size="14.00">samples = 0.3%</text>
<text text-anchor="middle" x="2295" y="-7.8" font-family="Helvetica,sans-Serif" font-size="14.00">value = [0.0, 1.0]</text>
</g>
<!-- 35&#45;&gt;37 -->
<g id="edge37" class="edge">
<title>35&#45;&gt;37</title>
<path fill="none" stroke="black" d="M2203.46,-73.91C2220.11,-64.1 2239,-52.98 2255.28,-43.39"/>
<polygon fill="black" stroke="black" points="2257.19,-46.33 2264.03,-38.24 2253.64,-40.3 2257.19,-46.33"/>
</g>
<!-- 39 -->
<g id="node40" class="node">
<title>39</title>
<polygon fill="#b5daf5" stroke="black" points="2705.5,-216 2558.5,-216 2558.5,-163 2705.5,-163 2705.5,-216"/>
<text text-anchor="middle" x="2632" y="-200.8" font-family="Helvetica,sans-Serif" font-size="14.00">Parch &lt;= 0.25</text>
<text text-anchor="middle" x="2632" y="-185.8" font-family="Helvetica,sans-Serif" font-size="14.00">samples = 2.2%</text>
<text text-anchor="middle" x="2632" y="-170.8" font-family="Helvetica,sans-Serif" font-size="14.00">value = [0.385, 0.615]</text>
</g>
<!-- 38&#45;&gt;39 -->
<g id="edge39" class="edge">
<title>38&#45;&gt;39</title>
<path fill="none" stroke="black" d="M2632,-251.87C2632,-243.89 2632,-234.93 2632,-226.38"/>
<polygon fill="black" stroke="black" points="2635.5,-226.25 2632,-216.25 2628.5,-226.25 2635.5,-226.25"/>
</g>
<!-- 46 -->
<g id="node47" class="node">
<title>46</title>
<polygon fill="#e88e4e" stroke="black" points="3043.5,-216 2896.5,-216 2896.5,-163 3043.5,-163 3043.5,-216"/>
<text text-anchor="middle" x="2970" y="-200.8" font-family="Helvetica,sans-Serif" font-size="14.00">SibSp &lt;= 0.3</text>
<text text-anchor="middle" x="2970" y="-185.8" font-family="Helvetica,sans-Serif" font-size="14.00">samples = 45.9%</text>
<text text-anchor="middle" x="2970" y="-170.8" font-family="Helvetica,sans-Serif" font-size="14.00">value = [0.904, 0.096]</text>
</g>
<!-- 38&#45;&gt;46 -->
<g id="edge46" class="edge">
<title>38&#45;&gt;46</title>
<path fill="none" stroke="black" d="M2698.37,-260.42C2752.26,-246.55 2828.55,-226.91 2886.57,-211.98"/>
<polygon fill="black" stroke="black" points="2887.63,-215.32 2896.44,-209.43 2885.89,-208.54 2887.63,-215.32"/>
</g>
<!-- 40 -->
<g id="node41" class="node">
<title>40</title>
<polygon fill="#88c4ef" stroke="black" points="2630.5,-127 2483.5,-127 2483.5,-74 2630.5,-74 2630.5,-127"/>
<text text-anchor="middle" x="2557" y="-111.8" font-family="Helvetica,sans-Serif" font-size="14.00">SibSp &lt;= 0.4</text>
<text text-anchor="middle" x="2557" y="-96.8" font-family="Helvetica,sans-Serif" font-size="14.00">samples = 1.4%</text>
<text text-anchor="middle" x="2557" y="-81.8" font-family="Helvetica,sans-Serif" font-size="14.00">value = [0.286, 0.714]</text>
</g>
<!-- 39&#45;&gt;40 -->
<g id="edge40" class="edge">
<title>39&#45;&gt;40</title>
<path fill="none" stroke="black" d="M2609.9,-162.87C2602.34,-154.1 2593.77,-144.15 2585.76,-134.86"/>
<polygon fill="black" stroke="black" points="2588.38,-132.54 2579.2,-127.25 2583.08,-137.11 2588.38,-132.54"/>
</g>
<!-- 43 -->
<g id="node44" class="node">
<title>43</title>
<polygon fill="#ffffff" stroke="black" points="2765.5,-127 2648.5,-127 2648.5,-74 2765.5,-74 2765.5,-127"/>
<text text-anchor="middle" x="2707" y="-111.8" font-family="Helvetica,sans-Serif" font-size="14.00">SibSp &lt;= 0.9</text>
<text text-anchor="middle" x="2707" y="-96.8" font-family="Helvetica,sans-Serif" font-size="14.00">samples = 0.8%</text>
<text text-anchor="middle" x="2707" y="-81.8" font-family="Helvetica,sans-Serif" font-size="14.00">value = [0.5, 0.5]</text>
</g>
<!-- 39&#45;&gt;43 -->
<g id="edge43" class="edge">
<title>39&#45;&gt;43</title>
<path fill="none" stroke="black" d="M2654.1,-162.87C2661.66,-154.1 2670.23,-144.15 2678.24,-134.86"/>
<polygon fill="black" stroke="black" points="2680.92,-137.11 2684.8,-127.25 2675.62,-132.54 2680.92,-137.11"/>
</g>
<!-- 41 -->
<g id="node42" class="node">
<title>41</title>
<polygon fill="#399de5" stroke="black" points="2488.5,-38 2371.5,-38 2371.5,0 2488.5,0 2488.5,-38"/>
<text text-anchor="middle" x="2430" y="-22.8" font-family="Helvetica,sans-Serif" font-size="14.00">samples = 0.8%</text>
<text text-anchor="middle" x="2430" y="-7.8" font-family="Helvetica,sans-Serif" font-size="14.00">value = [0.0, 1.0]</text>
</g>
<!-- 40&#45;&gt;41 -->
<g id="edge41" class="edge">
<title>40&#45;&gt;41</title>
<path fill="none" stroke="black" d="M2516.12,-73.91C2500.6,-64.19 2483.01,-53.18 2467.79,-43.66"/>
<polygon fill="black" stroke="black" points="2469.47,-40.58 2459.14,-38.24 2465.76,-46.51 2469.47,-40.58"/>
</g>
<!-- 42 -->
<g id="node43" class="node">
<title>42</title>
<polygon fill="#e58139" stroke="black" points="2623.5,-38 2506.5,-38 2506.5,0 2623.5,0 2623.5,-38"/>
<text text-anchor="middle" x="2565" y="-22.8" font-family="Helvetica,sans-Serif" font-size="14.00">samples = 0.5%</text>
<text text-anchor="middle" x="2565" y="-7.8" font-family="Helvetica,sans-Serif" font-size="14.00">value = [1.0, 0.0]</text>
</g>
<!-- 40&#45;&gt;42 -->
<g id="edge42" class="edge">
<title>40&#45;&gt;42</title>
<path fill="none" stroke="black" d="M2559.58,-73.91C2560.4,-65.74 2561.31,-56.65 2562.15,-48.3"/>
<polygon fill="black" stroke="black" points="2565.65,-48.54 2563.16,-38.24 2558.68,-47.84 2565.65,-48.54"/>
</g>
<!-- 44 -->
<g id="node45" class="node">
<title>44</title>
<polygon fill="#399de5" stroke="black" points="2758.5,-38 2641.5,-38 2641.5,0 2758.5,0 2758.5,-38"/>
<text text-anchor="middle" x="2700" y="-22.8" font-family="Helvetica,sans-Serif" font-size="14.00">samples = 0.5%</text>
<text text-anchor="middle" x="2700" y="-7.8" font-family="Helvetica,sans-Serif" font-size="14.00">value = [0.0, 1.0]</text>
</g>
<!-- 43&#45;&gt;44 -->
<g id="edge44" class="edge">
<title>43&#45;&gt;44</title>
<path fill="none" stroke="black" d="M2704.75,-73.91C2704.03,-65.74 2703.23,-56.65 2702.49,-48.3"/>
<polygon fill="black" stroke="black" points="2705.97,-47.89 2701.61,-38.24 2699,-48.51 2705.97,-47.89"/>
</g>
<!-- 45 -->
<g id="node46" class="node">
<title>45</title>
<polygon fill="#e58139" stroke="black" points="2893.5,-38 2776.5,-38 2776.5,0 2893.5,0 2893.5,-38"/>
<text text-anchor="middle" x="2835" y="-22.8" font-family="Helvetica,sans-Serif" font-size="14.00">samples = 0.3%</text>
<text text-anchor="middle" x="2835" y="-7.8" font-family="Helvetica,sans-Serif" font-size="14.00">value = [1.0, 0.0]</text>
</g>
<!-- 43&#45;&gt;45 -->
<g id="edge45" class="edge">
<title>43&#45;&gt;45</title>
<path fill="none" stroke="black" d="M2748.2,-73.91C2763.84,-64.19 2781.57,-53.18 2796.91,-43.66"/>
<polygon fill="black" stroke="black" points="2798.99,-46.49 2805.63,-38.24 2795.29,-40.54 2798.99,-46.49"/>
</g>
<!-- 47 -->
<g id="node48" class="node">
<title>47</title>
<polygon fill="#e88f4f" stroke="black" points="3031,-127 2909,-127 2909,-74 3031,-74 3031,-127"/>
<text text-anchor="middle" x="2970" y="-111.8" font-family="Helvetica,sans-Serif" font-size="14.00">Age &lt;= 0.125</text>
<text text-anchor="middle" x="2970" y="-96.8" font-family="Helvetica,sans-Serif" font-size="14.00">samples = 43.4%</text>
<text text-anchor="middle" x="2970" y="-81.8" font-family="Helvetica,sans-Serif" font-size="14.00">value = [0.9, 0.1]</text>
</g>
<!-- 46&#45;&gt;47 -->
<g id="edge47" class="edge">
<title>46&#45;&gt;47</title>
<path fill="none" stroke="black" d="M2970,-162.87C2970,-154.89 2970,-145.93 2970,-137.38"/>
<polygon fill="black" stroke="black" points="2973.5,-137.25 2970,-127.25 2966.5,-137.25 2973.5,-137.25"/>
</g>
<!-- 50 -->
<g id="node51" class="node">
<title>50</title>
<polygon fill="#e58139" stroke="black" points="3166.5,-119.5 3049.5,-119.5 3049.5,-81.5 3166.5,-81.5 3166.5,-119.5"/>
<text text-anchor="middle" x="3108" y="-104.3" font-family="Helvetica,sans-Serif" font-size="14.00">samples = 2.5%</text>
<text text-anchor="middle" x="3108" y="-89.3" font-family="Helvetica,sans-Serif" font-size="14.00">value = [1.0, 0.0]</text>
</g>
<!-- 46&#45;&gt;50 -->
<g id="edge50" class="edge">
<title>46&#45;&gt;50</title>
<path fill="none" stroke="black" d="M3010.66,-162.87C3029.74,-150.84 3052.32,-136.6 3070.93,-124.87"/>
<polygon fill="black" stroke="black" points="3072.85,-127.8 3079.44,-119.51 3069.11,-121.88 3072.85,-127.8"/>
</g>
<!-- 48 -->
<g id="node49" class="node">
<title>48</title>
<polygon fill="#399de5" stroke="black" points="3028.5,-38 2911.5,-38 2911.5,0 3028.5,0 3028.5,-38"/>
<text text-anchor="middle" x="2970" y="-22.8" font-family="Helvetica,sans-Serif" font-size="14.00">samples = 0.3%</text>
<text text-anchor="middle" x="2970" y="-7.8" font-family="Helvetica,sans-Serif" font-size="14.00">value = [0.0, 1.0]</text>
</g>
<!-- 47&#45;&gt;48 -->
<g id="edge48" class="edge">
<title>47&#45;&gt;48</title>
<path fill="none" stroke="black" d="M2970,-73.91C2970,-65.74 2970,-56.65 2970,-48.3"/>
<polygon fill="black" stroke="black" points="2973.5,-48.24 2970,-38.24 2966.5,-48.24 2973.5,-48.24"/>
</g>
<!-- 49 -->
<g id="node50" class="node">
<title>49</title>
<polygon fill="#e88e4e" stroke="black" points="3193.5,-38 3046.5,-38 3046.5,0 3193.5,0 3193.5,-38"/>
<text text-anchor="middle" x="3120" y="-22.8" font-family="Helvetica,sans-Serif" font-size="14.00">samples = 43.2%</text>
<text text-anchor="middle" x="3120" y="-7.8" font-family="Helvetica,sans-Serif" font-size="14.00">value = [0.904, 0.096]</text>
</g>
<!-- 47&#45;&gt;49 -->
<g id="edge49" class="edge">
<title>47&#45;&gt;49</title>
<path fill="none" stroke="black" d="M3018.29,-73.91C3037.04,-63.97 3058.36,-52.67 3076.62,-42.99"/>
<polygon fill="black" stroke="black" points="3078.39,-46.01 3085.59,-38.24 3075.11,-39.83 3078.39,-46.01"/>
</g>
</g>
</svg>
